<svg width="20" height="27" viewBox="0 0 20 27" fill="none" xmlns="http://www.w3.org/2000/svg">
<path d="M2.73652 1H17.7075C17.7102 1.00018 17.7142 1.00047 17.7192 1.00092C17.7407 1.00284 17.78 1.00747 17.8308 1.01804C17.9355 1.03986 18.0672 1.0824 18.1922 1.1605C18.3793 1.27741 18.7222 1.56983 18.7222 2.50001V25.1041L10.7869 19.6747L10.2364 19.2981L9.67723 19.6616L1.18414 25.1821C1.17446 24.7001 1.16345 24.1352 1.15173 23.5049C1.1127 21.4049 1.06588 18.5795 1.03466 15.6767C1.00344 12.7728 0.987899 9.79641 1.01124 7.39252C1.02291 6.18995 1.04426 5.13711 1.07784 4.31112C1.11257 3.45665 1.1583 2.91863 1.2028 2.69611C1.39462 1.73695 1.83647 1.35826 2.14535 1.18666C2.31763 1.09095 2.48099 1.04305 2.59802 1.01964C2.65572 1.0081 2.69919 1.00312 2.72268 1.00106C2.7288 1.00052 2.73345 1.00019 2.73652 1Z" stroke="#808080" stroke-width="2"/>
</svg>
