<svg width="35" height="26" viewBox="0 0 35 26" fill="none" xmlns="http://www.w3.org/2000/svg">
<path fill-rule="evenodd" clip-rule="evenodd" d="M12.248 13.139L2.18907 22.4636V3.89035L12.248 13.139ZM17.4935 14.9956L31.1583 2.2073L3.58261 2.20756L17.4928 14.9958L17.4935 14.9956ZM22.7105 13.1031L32.8108 3.64979V22.494L22.7105 13.1031ZM16.7582 17.286L13.8606 14.621L3.96567 23.7944H31.0022L21.1124 14.5991L18.2482 17.2797V17.2795C18.0469 17.4685 17.781 17.5743 17.5045 17.5756C17.2278 17.5769 16.9609 17.4735 16.7579 17.2865L16.7582 17.286ZM2.26869 25.9741H32.731C33.3321 25.9734 33.908 25.7353 34.333 25.3117C34.7578 24.8884 34.9969 24.3142 34.9977 23.7154V2.28531C34.9969 1.68649 34.7578 1.11228 34.333 0.688944C33.908 0.26535 33.3321 0.0272959 32.731 0.0265236H2.26869C1.66758 0.0272778 1.09167 0.265344 0.66663 0.688944C0.241845 1.11229 0.00272803 1.68647 0.00195312 2.28531V23.7154C0.00270989 24.3142 0.241839 24.8884 0.66663 25.3117C1.09167 25.7353 1.66755 25.9734 2.26869 25.9741Z" fill="white"/>
</svg>
