<svg width="26" height="26" viewBox="0 0 26 26" fill="none" xmlns="http://www.w3.org/2000/svg">
    <path
        d="M0.000335693 12.8365C0.000335693 19.6973 5.64152 25.259 12.6003 25.259C19.559 25.259 25.2002 19.6973 25.2002 12.8365C25.2002 5.97579 19.559 0.414062 12.6003 0.414062C5.64152 0.414062 0.000335693 5.97579 0.000335693 12.8365Z"
        fill="#219EA4" />
    <path
        d="M0.000335693 12.8365C0.000335693 19.6973 5.64152 25.259 12.6003 25.259C19.559 25.259 25.2002 19.6973 25.2002 12.8365C25.2002 5.97579 19.559 0.414062 12.6003 0.414062C5.64152 0.414062 0.000335693 5.97579 0.000335693 12.8365Z"
    />
    <g clip-path="url(#clip0_1458_1382)">
        <path fill-rule="evenodd" clip-rule="evenodd"
            d="M14.4641 13.2409L18.0343 16.5505V9.95829L14.4641 13.2409ZM12.6023 13.8998L7.75228 9.36093L17.5397 9.36102L12.6025 13.8999L12.6023 13.8998ZM10.7507 13.2282L7.16579 9.87291V16.5612L10.7507 13.2282ZM12.8633 14.7128L13.8917 13.7669L17.4037 17.0228H7.8077L11.3179 13.7591L12.3345 14.7105V14.7105C12.4059 14.7776 12.5003 14.8151 12.5984 14.8156C12.6966 14.816 12.7913 14.7793 12.8634 14.713L12.8633 14.7128ZM18.006 17.7964H7.19412C6.98077 17.7962 6.77636 17.7117 6.62551 17.5613C6.47474 17.4111 6.38987 17.2073 6.38959 16.9947V9.38862C6.38986 9.17608 6.47474 8.97228 6.62551 8.82203C6.77636 8.67168 6.98076 8.58719 7.19412 8.58691H18.006C18.2194 8.58718 18.4238 8.67168 18.5746 8.82203C18.7254 8.97228 18.8103 9.17607 18.8105 9.38862V16.9947C18.8103 17.2073 18.7254 17.4111 18.5746 17.5613C18.4238 17.7117 18.2194 17.7962 18.006 17.7964Z"
            fill="white" />
    </g>
    <defs>
        <clipPath id="clip0_1458_1382">
            <rect width="12.4225" height="9.22812" fill="white"
                transform="matrix(-1 0 0 1 18.8115 8.57715)" />
        </clipPath>
    </defs>
</svg>