<svg width="262" height="44" viewBox="0 0 262 44" fill="none" xmlns="http://www.w3.org/2000/svg">
<path d="M26.835 1.05V33H21.75V18.915H5.64V33H0.6V1.05H5.64V14.415H21.75V1.05H26.835ZM31.4387 26.115C31.4387 24.615 31.8587 23.31 32.6987 22.2C33.5687 21.06 34.7537 20.19 36.2537 19.59C37.7537 18.96 39.4937 18.645 41.4737 18.645C42.5237 18.645 43.5887 18.72 44.6687 18.87C45.7787 19.02 46.7537 19.26 47.5937 19.59V18.105C47.5937 16.455 47.0987 15.165 46.1087 14.235C45.1187 13.305 43.6937 12.84 41.8337 12.84C40.5137 12.84 39.2687 13.08 38.0987 13.56C36.9287 14.01 35.6837 14.655 34.3637 15.495L32.6987 12.165C34.2587 11.115 35.8187 10.335 37.3787 9.825C38.9687 9.315 40.6337 9.06 42.3737 9.06C45.5237 9.06 47.9987 9.9 49.7987 11.58C51.6287 13.23 52.5437 15.585 52.5437 18.645V27.42C52.5437 27.99 52.6337 28.395 52.8137 28.635C53.0237 28.875 53.3687 29.01 53.8487 29.04V33C53.3987 33.09 52.9937 33.15 52.6337 33.18C52.2737 33.21 51.9737 33.225 51.7337 33.225C50.6837 33.225 49.8887 32.97 49.3487 32.46C48.8087 31.95 48.4937 31.35 48.4037 30.66L48.2687 29.31C47.2487 30.63 45.9437 31.65 44.3537 32.37C42.7637 33.09 41.1587 33.45 39.5387 33.45C37.9787 33.45 36.5837 33.135 35.3537 32.505C34.1237 31.845 33.1637 30.96 32.4737 29.85C31.7837 28.74 31.4387 27.495 31.4387 26.115ZM46.4237 27.555C46.7837 27.165 47.0687 26.775 47.2787 26.385C47.4887 25.995 47.5937 25.65 47.5937 25.35V22.65C46.7537 22.32 45.8687 22.08 44.9387 21.93C44.0087 21.75 43.0937 21.66 42.1937 21.66C40.3937 21.66 38.9237 22.02 37.7837 22.74C36.6737 23.46 36.1187 24.45 36.1187 25.71C36.1187 26.4 36.2987 27.06 36.6587 27.69C37.0487 28.32 37.5887 28.83 38.2787 29.22C38.9987 29.61 39.8837 29.805 40.9337 29.805C42.0137 29.805 43.0487 29.595 44.0387 29.175C45.0287 28.755 45.8237 28.215 46.4237 27.555ZM71.9141 33.45C70.0241 33.45 68.3591 33 66.9191 32.1C65.4791 31.2 64.3391 30.03 63.4991 28.59V42.585H58.5491V9.465H62.9141V13.695C63.8141 12.285 64.9841 11.16 66.4241 10.32C67.8641 9.48 69.4691 9.06 71.2391 9.06C72.8591 9.06 74.3441 9.39 75.6941 10.05C77.0441 10.68 78.2141 11.565 79.2041 12.705C80.1941 13.845 80.9591 15.15 81.4991 16.62C82.0691 18.06 82.3541 19.59 82.3541 21.21C82.3541 23.46 81.9041 25.515 81.0041 27.375C80.1341 29.235 78.9041 30.72 77.3141 31.83C75.7541 32.91 73.9541 33.45 71.9141 33.45ZM70.2941 29.22C71.3441 29.22 72.2891 28.995 73.1291 28.545C73.9991 28.095 74.7341 27.495 75.3341 26.745C75.9641 25.995 76.4441 25.14 76.7741 24.18C77.1041 23.22 77.2691 22.23 77.2691 21.21C77.2691 20.13 77.0891 19.11 76.7291 18.15C76.3691 17.19 75.8441 16.35 75.1541 15.63C74.4941 14.91 73.7141 14.34 72.8141 13.92C71.9441 13.5 70.9841 13.29 69.9341 13.29C69.3041 13.29 68.6441 13.41 67.9541 13.65C67.2641 13.89 66.6191 14.22 66.0191 14.64C65.4191 15.06 64.8941 15.555 64.4441 16.125C63.9941 16.695 63.6791 17.295 63.4991 17.925V24.09C63.9191 25.05 64.4741 25.92 65.1641 26.7C65.8541 27.45 66.6491 28.065 67.5491 28.545C68.4491 28.995 69.3641 29.22 70.2941 29.22ZM100.171 33.45C98.2809 33.45 96.6159 33 95.1759 32.1C93.7359 31.2 92.5959 30.03 91.7559 28.59V42.585H86.8059V9.465H91.1709V13.695C92.0709 12.285 93.2409 11.16 94.6809 10.32C96.1209 9.48 97.7259 9.06 99.4959 9.06C101.116 9.06 102.601 9.39 103.951 10.05C105.301 10.68 106.471 11.565 107.461 12.705C108.451 13.845 109.216 15.15 109.756 16.62C110.326 18.06 110.611 19.59 110.611 21.21C110.611 23.46 110.161 25.515 109.261 27.375C108.391 29.235 107.161 30.72 105.571 31.83C104.011 32.91 102.211 33.45 100.171 33.45ZM98.5509 29.22C99.6009 29.22 100.546 28.995 101.386 28.545C102.256 28.095 102.991 27.495 103.591 26.745C104.221 25.995 104.701 25.14 105.031 24.18C105.361 23.22 105.526 22.23 105.526 21.21C105.526 20.13 105.346 19.11 104.986 18.15C104.626 17.19 104.101 16.35 103.411 15.63C102.751 14.91 101.971 14.34 101.071 13.92C100.201 13.5 99.2409 13.29 98.1909 13.29C97.5609 13.29 96.9009 13.41 96.2109 13.65C95.5209 13.89 94.8759 14.22 94.2759 14.64C93.6759 15.06 93.1509 15.555 92.7009 16.125C92.2509 16.695 91.9359 17.295 91.7559 17.925V24.09C92.1759 25.05 92.7309 25.92 93.4209 26.7C94.1109 27.45 94.9059 28.065 95.8059 28.545C96.7059 28.995 97.6209 29.22 98.5509 29.22ZM115.082 38.535C115.532 38.595 115.967 38.655 116.387 38.715C116.837 38.805 117.197 38.85 117.467 38.85C117.977 38.85 118.412 38.685 118.772 38.355C119.162 38.055 119.552 37.485 119.942 36.645C120.332 35.805 120.812 34.59 121.382 33L111.707 9.465H116.882L124.082 27.96L130.472 9.465H135.242L124.577 38.445C124.247 39.315 123.767 40.11 123.137 40.83C122.507 41.58 121.727 42.165 120.797 42.585C119.867 43.005 118.772 43.215 117.512 43.215C117.152 43.215 116.777 43.185 116.387 43.125C115.997 43.065 115.562 42.975 115.082 42.855V38.535ZM161.426 29.4V33H139.736V1.05H161.021V4.65H143.786V15H158.771V18.375H143.786V29.4H161.426ZM164.507 26.205C164.507 24.705 164.927 23.415 165.767 22.335C166.637 21.225 167.822 20.37 169.322 19.77C170.822 19.17 172.562 18.87 174.542 18.87C175.592 18.87 176.702 18.96 177.872 19.14C179.042 19.29 180.077 19.53 180.977 19.86V18.15C180.977 16.35 180.437 14.94 179.357 13.92C178.277 12.87 176.747 12.345 174.767 12.345C173.477 12.345 172.232 12.585 171.032 13.065C169.862 13.515 168.617 14.175 167.297 15.045L165.857 12.255C167.387 11.205 168.917 10.425 170.447 9.915C171.977 9.375 173.567 9.105 175.217 9.105C178.217 9.105 180.587 9.945 182.327 11.625C184.067 13.275 184.937 15.585 184.937 18.555V28.5C184.937 28.98 185.027 29.34 185.207 29.58C185.417 29.79 185.747 29.91 186.197 29.94V33C185.807 33.06 185.462 33.105 185.162 33.135C184.892 33.165 184.667 33.18 184.487 33.18C183.557 33.18 182.852 32.925 182.372 32.415C181.922 31.905 181.667 31.365 181.607 30.795L181.517 29.31C180.497 30.63 179.162 31.65 177.512 32.37C175.862 33.09 174.227 33.45 172.607 33.45C171.047 33.45 169.652 33.135 168.422 32.505C167.192 31.845 166.232 30.975 165.542 29.895C164.852 28.785 164.507 27.555 164.507 26.205ZM179.807 27.87C180.167 27.45 180.452 27.03 180.662 26.61C180.872 26.16 180.977 25.785 180.977 25.485V22.56C180.047 22.2 179.072 21.93 178.052 21.75C177.032 21.54 176.027 21.435 175.037 21.435C173.027 21.435 171.392 21.84 170.132 22.65C168.902 23.43 168.287 24.51 168.287 25.89C168.287 26.64 168.482 27.375 168.872 28.095C169.292 28.785 169.892 29.355 170.672 29.805C171.482 30.255 172.472 30.48 173.642 30.48C174.872 30.48 176.042 30.24 177.152 29.76C178.262 29.25 179.147 28.62 179.807 27.87ZM199.324 33.45C197.374 33.45 195.544 33.135 193.834 32.505C192.124 31.845 190.654 30.87 189.424 29.58L190.954 26.79C192.304 28.05 193.654 28.95 195.004 29.49C196.354 30.03 197.734 30.3 199.144 30.3C200.764 30.3 202.084 30 203.104 29.4C204.124 28.77 204.634 27.855 204.634 26.655C204.634 25.785 204.364 25.14 203.824 24.72C203.314 24.3 202.579 23.955 201.619 23.685C200.659 23.385 199.519 23.055 198.199 22.695C196.579 22.215 195.214 21.705 194.104 21.165C192.994 20.625 192.154 19.95 191.584 19.14C191.014 18.33 190.729 17.31 190.729 16.08C190.729 14.58 191.119 13.32 191.899 12.3C192.679 11.25 193.744 10.455 195.094 9.915C196.474 9.375 198.034 9.105 199.774 9.105C201.514 9.105 203.089 9.375 204.499 9.915C205.909 10.455 207.124 11.25 208.144 12.3L206.344 15.045C205.414 14.085 204.394 13.38 203.284 12.93C202.174 12.45 200.929 12.21 199.549 12.21C198.739 12.21 197.944 12.315 197.164 12.525C196.384 12.705 195.739 13.05 195.229 13.56C194.719 14.04 194.464 14.73 194.464 15.63C194.464 16.38 194.659 16.98 195.049 17.43C195.469 17.85 196.069 18.21 196.849 18.51C197.659 18.81 198.634 19.14 199.774 19.5C201.544 20.01 203.074 20.52 204.364 21.03C205.684 21.54 206.704 22.2 207.424 23.01C208.144 23.82 208.504 24.945 208.504 26.385C208.504 28.605 207.664 30.345 205.984 31.605C204.304 32.835 202.084 33.45 199.324 33.45ZM225.392 31.83C225.062 31.98 224.612 32.175 224.042 32.415C223.472 32.655 222.812 32.865 222.062 33.045C221.312 33.225 220.517 33.315 219.677 33.315C218.717 33.315 217.832 33.15 217.022 32.82C216.212 32.46 215.567 31.92 215.087 31.2C214.607 30.45 214.367 29.52 214.367 28.41V12.615H211.172V9.51H214.367V1.68H218.327V9.51H223.592V12.615H218.327V27.195C218.387 28.035 218.672 28.665 219.182 29.085C219.692 29.475 220.292 29.67 220.982 29.67C221.762 29.67 222.482 29.535 223.142 29.265C223.802 28.995 224.237 28.8 224.447 28.68L225.392 31.83ZM229.062 33V9.51H233.022V33H229.062ZM229.062 5.1V0.149999H233.022V5.1H229.062ZM249.828 33.45C248.058 33.45 246.438 33.135 244.968 32.505C243.528 31.845 242.268 30.96 241.188 29.85C240.138 28.71 239.313 27.405 238.713 25.935C238.143 24.465 237.858 22.905 237.858 21.255C237.858 19.035 238.368 17.01 239.388 15.18C240.408 13.35 241.818 11.88 243.618 10.77C245.448 9.66 247.533 9.105 249.873 9.105C252.243 9.105 254.298 9.675 256.038 10.815C257.808 11.925 259.173 13.395 260.133 15.225C261.123 17.025 261.618 18.975 261.618 21.075C261.618 21.375 261.603 21.675 261.573 21.975C261.573 22.245 261.558 22.455 261.528 22.605H242.043C242.163 24.135 242.583 25.5 243.303 26.7C244.053 27.87 245.013 28.8 246.183 29.49C247.353 30.15 248.613 30.48 249.963 30.48C251.403 30.48 252.753 30.12 254.013 29.4C255.303 28.68 256.188 27.735 256.668 26.565L260.088 27.51C259.578 28.65 258.813 29.67 257.793 30.57C256.803 31.47 255.618 32.175 254.238 32.685C252.888 33.195 251.418 33.45 249.828 33.45ZM241.908 19.86H257.928C257.808 18.33 257.373 16.98 256.623 15.81C255.873 14.64 254.913 13.725 253.743 13.065C252.573 12.405 251.283 12.075 249.873 12.075C248.493 12.075 247.218 12.405 246.048 13.065C244.878 13.725 243.918 14.64 243.168 15.81C242.448 16.98 242.028 18.33 241.908 19.86Z" fill="black"/>
</svg>
