<svg width="135" height="23" viewBox="0 0 135 23" fill="none" xmlns="http://www.w3.org/2000/svg">
<path d="M14.249 0.669999V17H11.65V9.801H3.416V17H0.84V0.669999H3.416V7.501H11.65V0.669999H14.249ZM16.602 13.481C16.602 12.7143 16.8167 12.0473 17.246 11.48C17.6907 10.8973 18.2963 10.4527 19.063 10.146C19.8297 9.824 20.719 9.663 21.731 9.663C22.2677 9.663 22.812 9.70133 23.364 9.778C23.9313 9.85467 24.4297 9.97733 24.859 10.146V9.387C24.859 8.54367 24.606 7.88433 24.1 7.409C23.594 6.93367 22.8657 6.696 21.915 6.696C21.2403 6.696 20.604 6.81867 20.006 7.064C19.408 7.294 18.7717 7.62367 18.097 8.053L17.246 6.351C18.0433 5.81433 18.8407 5.41567 19.638 5.155C20.4507 4.89433 21.3017 4.764 22.191 4.764C23.801 4.764 25.066 5.19333 25.986 6.052C26.9213 6.89533 27.389 8.099 27.389 9.663V14.148C27.389 14.4393 27.435 14.6463 27.527 14.769C27.6343 14.8917 27.8107 14.9607 28.056 14.976V17C27.826 17.046 27.619 17.0767 27.435 17.092C27.251 17.1073 27.0977 17.115 26.975 17.115C26.4383 17.115 26.032 16.9847 25.756 16.724C25.48 16.4633 25.319 16.1567 25.273 15.804L25.204 15.114C24.6827 15.7887 24.0157 16.31 23.203 16.678C22.3903 17.046 21.57 17.23 20.742 17.23C19.9447 17.23 19.2317 17.069 18.603 16.747C17.9743 16.4097 17.4837 15.9573 17.131 15.39C16.7783 14.8227 16.602 14.1863 16.602 13.481ZM24.261 14.217C24.445 14.0177 24.5907 13.8183 24.698 13.619C24.8053 13.4197 24.859 13.2433 24.859 13.09V11.71C24.4297 11.5413 23.9773 11.4187 23.502 11.342C23.0267 11.25 22.559 11.204 22.099 11.204C21.179 11.204 20.4277 11.388 19.845 11.756C19.2777 12.124 18.994 12.63 18.994 13.274C18.994 13.6267 19.086 13.964 19.27 14.286C19.4693 14.608 19.7453 14.8687 20.098 15.068C20.466 15.2673 20.9183 15.367 21.455 15.367C22.007 15.367 22.536 15.2597 23.042 15.045C23.548 14.8303 23.9543 14.5543 24.261 14.217ZM37.2894 17.23C36.3234 17.23 35.4724 17 34.7364 16.54C34.0004 16.08 33.4178 15.482 32.9884 14.746V21.899H30.4584V4.971H32.6894V7.133C33.1494 6.41233 33.7474 5.83733 34.4834 5.408C35.2194 4.97867 36.0398 4.764 36.9444 4.764C37.7724 4.764 38.5314 4.93267 39.2214 5.27C39.9114 5.592 40.5094 6.04433 41.0154 6.627C41.5214 7.20967 41.9124 7.87667 42.1884 8.628C42.4798 9.364 42.6254 10.146 42.6254 10.974C42.6254 12.124 42.3954 13.1743 41.9354 14.125C41.4908 15.0757 40.8621 15.8347 40.0494 16.402C39.2521 16.954 38.3321 17.23 37.2894 17.23ZM36.4614 15.068C36.9981 15.068 37.4811 14.953 37.9104 14.723C38.3551 14.493 38.7308 14.1863 39.0374 13.803C39.3594 13.4197 39.6048 12.9827 39.7734 12.492C39.9421 12.0013 40.0264 11.4953 40.0264 10.974C40.0264 10.422 39.9344 9.90067 39.7504 9.41C39.5664 8.91933 39.2981 8.49 38.9454 8.122C38.6081 7.754 38.2094 7.46267 37.7494 7.248C37.3048 7.03333 36.8141 6.926 36.2774 6.926C35.9554 6.926 35.6181 6.98733 35.2654 7.11C34.9128 7.23267 34.5831 7.40133 34.2764 7.616C33.9698 7.83067 33.7014 8.08367 33.4714 8.375C33.2414 8.66633 33.0804 8.973 32.9884 9.295V12.446C33.2031 12.9367 33.4868 13.3813 33.8394 13.78C34.1921 14.1633 34.5984 14.4777 35.0584 14.723C35.5184 14.953 35.9861 15.068 36.4614 15.068ZM51.7318 17.23C50.7658 17.23 49.9148 17 49.1788 16.54C48.4428 16.08 47.8601 15.482 47.4308 14.746V21.899H44.9008V4.971H47.1318V7.133C47.5918 6.41233 48.1898 5.83733 48.9258 5.408C49.6618 4.97867 50.4821 4.764 51.3868 4.764C52.2148 4.764 52.9738 4.93267 53.6638 5.27C54.3538 5.592 54.9518 6.04433 55.4578 6.627C55.9638 7.20967 56.3548 7.87667 56.6308 8.628C56.9221 9.364 57.0678 10.146 57.0678 10.974C57.0678 12.124 56.8378 13.1743 56.3778 14.125C55.9331 15.0757 55.3045 15.8347 54.4918 16.402C53.6945 16.954 52.7745 17.23 51.7318 17.23ZM50.9038 15.068C51.4405 15.068 51.9235 14.953 52.3528 14.723C52.7975 14.493 53.1731 14.1863 53.4798 13.803C53.8018 13.4197 54.0471 12.9827 54.2158 12.492C54.3845 12.0013 54.4688 11.4953 54.4688 10.974C54.4688 10.422 54.3768 9.90067 54.1928 9.41C54.0088 8.91933 53.7405 8.49 53.3878 8.122C53.0505 7.754 52.6518 7.46267 52.1918 7.248C51.7471 7.03333 51.2565 6.926 50.7198 6.926C50.3978 6.926 50.0605 6.98733 49.7078 7.11C49.3551 7.23267 49.0255 7.40133 48.7188 7.616C48.4121 7.83067 48.1438 8.08367 47.9138 8.375C47.6838 8.66633 47.5228 8.973 47.4308 9.295V12.446C47.6455 12.9367 47.9291 13.3813 48.2818 13.78C48.6345 14.1633 49.0408 14.4777 49.5008 14.723C49.9608 14.953 50.4285 15.068 50.9038 15.068ZM59.3529 19.829C59.5829 19.8597 59.8052 19.8903 60.0199 19.921C60.2499 19.967 60.4339 19.99 60.5719 19.99C60.8326 19.99 61.0549 19.9057 61.2389 19.737C61.4382 19.5837 61.6376 19.2923 61.8369 18.863C62.0362 18.4337 62.2816 17.8127 62.5729 17L57.6279 4.971H60.2729L63.9529 14.424L67.2189 4.971H69.6569L64.2059 19.783C64.0372 20.2277 63.7919 20.634 63.4699 21.002C63.1479 21.3853 62.7492 21.6843 62.2739 21.899C61.7986 22.1137 61.2389 22.221 60.5949 22.221C60.4109 22.221 60.2192 22.2057 60.0199 22.175C59.8206 22.1443 59.5982 22.0983 59.3529 22.037V19.829ZM83.04 15.16V17H71.954V0.669999H82.833V2.51H74.024V7.8H81.683V9.525H74.024V15.16H83.04ZM84.6148 13.527C84.6148 12.7603 84.8295 12.101 85.2588 11.549C85.7035 10.9817 86.3091 10.5447 87.0758 10.238C87.8425 9.93133 88.7318 9.778 89.7438 9.778C90.2805 9.778 90.8478 9.824 91.4458 9.916C92.0438 9.99267 92.5728 10.1153 93.0328 10.284V9.41C93.0328 8.49 92.7568 7.76933 92.2048 7.248C91.6528 6.71133 90.8708 6.443 89.8588 6.443C89.1995 6.443 88.5631 6.56567 87.9498 6.811C87.3518 7.041 86.7155 7.37833 86.0408 7.823L85.3048 6.397C86.0868 5.86033 86.8688 5.46167 87.6508 5.201C88.4328 4.925 89.2455 4.787 90.0888 4.787C91.6221 4.787 92.8335 5.21633 93.7228 6.075C94.6121 6.91833 95.0568 8.099 95.0568 9.617V14.7C95.0568 14.9453 95.1028 15.1293 95.1948 15.252C95.3021 15.3593 95.4708 15.4207 95.7008 15.436V17C95.5015 17.0307 95.3251 17.0537 95.1718 17.069C95.0338 17.0843 94.9188 17.092 94.8268 17.092C94.3515 17.092 93.9911 16.9617 93.7458 16.701C93.5158 16.4403 93.3855 16.1643 93.3548 15.873L93.3088 15.114C92.7875 15.7887 92.1051 16.31 91.2618 16.678C90.4185 17.046 89.5828 17.23 88.7548 17.23C87.9575 17.23 87.2445 17.069 86.6158 16.747C85.9871 16.4097 85.4965 15.965 85.1438 15.413C84.7911 14.8457 84.6148 14.217 84.6148 13.527ZM92.4348 14.378C92.6188 14.1633 92.7645 13.9487 92.8718 13.734C92.9791 13.504 93.0328 13.3123 93.0328 13.159V11.664C92.5575 11.48 92.0591 11.342 91.5378 11.25C91.0165 11.1427 90.5028 11.089 89.9968 11.089C88.9695 11.089 88.1338 11.296 87.4898 11.71C86.8611 12.1087 86.5468 12.6607 86.5468 13.366C86.5468 13.7493 86.6465 14.125 86.8458 14.493C87.0605 14.8457 87.3671 15.137 87.7658 15.367C88.1798 15.597 88.6858 15.712 89.2838 15.712C89.9125 15.712 90.5105 15.5893 91.0778 15.344C91.6451 15.0833 92.0975 14.7613 92.4348 14.378ZM102.41 17.23C101.413 17.23 100.478 17.069 99.6042 16.747C98.7302 16.4097 97.9788 15.9113 97.3502 15.252L98.1322 13.826C98.8222 14.47 99.5122 14.93 100.202 15.206C100.892 15.482 101.597 15.62 102.318 15.62C103.146 15.62 103.821 15.4667 104.342 15.16C104.863 14.838 105.124 14.3703 105.124 13.757C105.124 13.3123 104.986 12.9827 104.71 12.768C104.449 12.5533 104.074 12.377 103.583 12.239C103.092 12.0857 102.51 11.917 101.835 11.733C101.007 11.4877 100.309 11.227 99.7422 10.951C99.1748 10.675 98.7455 10.33 98.4542 9.916C98.1628 9.502 98.0172 8.98067 98.0172 8.352C98.0172 7.58533 98.2165 6.94133 98.6152 6.42C99.0138 5.88333 99.5582 5.477 100.248 5.201C100.953 4.925 101.751 4.787 102.64 4.787C103.529 4.787 104.334 4.925 105.055 5.201C105.776 5.477 106.397 5.88333 106.918 6.42L105.998 7.823C105.523 7.33233 105.001 6.972 104.434 6.742C103.867 6.49667 103.23 6.374 102.525 6.374C102.111 6.374 101.705 6.42767 101.306 6.535C100.907 6.627 100.578 6.80333 100.317 7.064C100.056 7.30933 99.9262 7.662 99.9262 8.122C99.9262 8.50533 100.026 8.812 100.225 9.042C100.44 9.25667 100.746 9.44067 101.145 9.594C101.559 9.74733 102.057 9.916 102.64 10.1C103.545 10.3607 104.327 10.6213 104.986 10.882C105.661 11.1427 106.182 11.48 106.55 11.894C106.918 12.308 107.102 12.883 107.102 13.619C107.102 14.7537 106.673 15.643 105.814 16.287C104.955 16.9157 103.821 17.23 102.41 17.23ZM115.734 16.402C115.565 16.4787 115.335 16.5783 115.044 16.701C114.752 16.8237 114.415 16.931 114.032 17.023C113.648 17.115 113.242 17.161 112.813 17.161C112.322 17.161 111.87 17.0767 111.456 16.908C111.042 16.724 110.712 16.448 110.467 16.08C110.221 15.6967 110.099 15.2213 110.099 14.654V6.581H108.466V4.994H110.099V0.991999H112.123V4.994H114.814V6.581H112.123V14.033C112.153 14.4623 112.299 14.7843 112.56 14.999C112.82 15.1983 113.127 15.298 113.48 15.298C113.878 15.298 114.246 15.229 114.584 15.091C114.921 14.953 115.143 14.8533 115.251 14.792L115.734 16.402ZM117.61 17V4.994H119.634V17H117.61ZM117.61 2.74V0.21H119.634V2.74H117.61ZM128.223 17.23C127.319 17.23 126.491 17.069 125.739 16.747C125.003 16.4097 124.359 15.9573 123.807 15.39C123.271 14.8073 122.849 14.1403 122.542 13.389C122.251 12.6377 122.105 11.8403 122.105 10.997C122.105 9.86233 122.366 8.82733 122.887 7.892C123.409 6.95667 124.129 6.20533 125.049 5.638C125.985 5.07067 127.05 4.787 128.246 4.787C129.458 4.787 130.508 5.07833 131.397 5.661C132.302 6.22833 133 6.97967 133.49 7.915C133.996 8.835 134.249 9.83167 134.249 10.905C134.249 11.0583 134.242 11.2117 134.226 11.365C134.226 11.503 134.219 11.6103 134.203 11.687H124.244C124.306 12.469 124.52 13.1667 124.888 13.78C125.272 14.378 125.762 14.8533 126.36 15.206C126.958 15.5433 127.602 15.712 128.292 15.712C129.028 15.712 129.718 15.528 130.362 15.16C131.022 14.792 131.474 14.309 131.719 13.711L133.467 14.194C133.207 14.7767 132.816 15.298 132.294 15.758C131.788 16.218 131.183 16.5783 130.477 16.839C129.787 17.0997 129.036 17.23 128.223 17.23ZM124.175 10.284H132.363C132.302 9.502 132.08 8.812 131.696 8.214C131.313 7.616 130.822 7.14833 130.224 6.811C129.626 6.47367 128.967 6.305 128.246 6.305C127.541 6.305 126.889 6.47367 126.291 6.811C125.693 7.14833 125.203 7.616 124.819 8.214C124.451 8.812 124.237 9.502 124.175 10.284Z" fill="white"/>
</svg>
