<svg width="27" height="27" viewBox="0 0 27 27" fill="none" xmlns="http://www.w3.org/2000/svg">
<circle cx="13.5" cy="13.5" r="13.5" fill="#219EA4"/>
<path d="M16.818 10.748C16.818 11.112 16.7433 11.42 16.594 11.672C16.454 11.924 16.356 12.092 16.3 12.176C16.2533 12.2507 16.1507 12.3907 15.992 12.596C15.8427 12.792 15.7633 12.8947 15.754 12.904L14.816 13.87C14.648 14.0847 14.564 14.3227 14.564 14.584V15.018H12.744V14.458C12.744 13.8327 12.9213 13.3473 13.276 13.002L14.144 12.204C14.5733 11.8213 14.8347 11.4853 14.928 11.196C14.9747 11.0467 14.998 10.8927 14.998 10.734C14.998 10.2673 14.9047 9.95933 14.718 9.81C14.5407 9.66067 14.2373 9.586 13.808 9.586C13.388 9.586 13.0753 9.66533 12.87 9.824C12.6647 9.98267 12.562 10.2953 12.562 10.762C12.562 11.2193 12.7067 11.6673 12.996 12.106L11.582 12.666C11.2833 12.302 11.0733 11.9847 10.952 11.714C10.8307 11.434 10.77 11.112 10.77 10.748C10.77 9.80533 11.008 9.10533 11.484 8.648C11.96 8.18133 12.7533 7.948 13.864 7.948C15.8333 7.948 16.818 8.88133 16.818 10.748ZM14.62 16.124C14.7693 16.264 14.844 16.5673 14.844 17.034C14.844 17.5007 14.7693 17.8087 14.62 17.958C14.48 18.1073 14.1767 18.182 13.71 18.182C13.2433 18.182 12.9353 18.1073 12.786 17.958C12.6367 17.8087 12.562 17.5007 12.562 17.034C12.562 16.5673 12.6367 16.264 12.786 16.124C12.9353 15.9747 13.2433 15.9 13.71 15.9C14.1767 15.9 14.48 15.9747 14.62 16.124Z" fill="white"/>
</svg>
