<svg width="476" height="450" viewBox="0 0 476 450" fill="none" xmlns="http://www.w3.org/2000/svg">
<circle cx="113" cy="160" r="113" fill="#D2DAEF"/>
<circle cx="287" cy="285" r="165" fill="#D2DAEF"/>
<path d="M247.572 343.132L265.594 331.117L271.602 339.855L250.849 351.324L247.572 343.132Z" fill="#FE9C83"/>
<path d="M289.078 292.342H310.376L314.199 299.988L306.554 304.357L289.078 301.08V292.342Z" fill="#FE9C83"/>
<path d="M280.886 288.519C284.709 288.519 289.624 292.888 289.624 292.888V301.626L284.709 314.733L275.971 319.102V299.988C275.971 295.073 277.063 288.519 280.886 288.519Z" fill="#585757"/>
<path d="M239.926 342.586C244.841 342.586 248.118 343.132 248.118 343.132L251.395 350.777C251.395 350.777 254.125 361.154 254.126 366.069C254.126 370.984 254.672 368.8 253.033 375.353C251.395 381.906 246.48 374.261 246.48 374.261L239.926 358.969L236.103 346.955C236.103 346.955 235.011 342.586 239.926 342.586Z" fill="#585757"/>
<path d="M259.587 169.464L272.148 165.641L280.34 175.472C280.34 175.472 257.33 192.981 254.126 192.401C250.921 191.822 247.649 189.086 248.118 188.579L245.388 126.866L238.834 116.49C238.834 116.49 236.65 109.391 245.388 108.844C254.126 108.298 256.856 116.49 256.856 116.49L254.126 128.505L259.587 169.464Z" fill="#FE9C83"/>
<path d="M386 144.334L373.901 145.136L372.879 159.845L399.029 161.663C402.298 161.89 408.897 153.59 409.162 149.776C409.427 145.963 366.148 99.1589 366.148 99.1589L364.575 90.2905C364.575 90.2905 358.529 82.7536 352.044 89.4195C345.559 96.0855 351.097 103.04 351.097 103.04L358.725 103.57L386 144.334Z" fill="#FE9C83"/>
<path d="M314.745 142.158V127.413H327.852L329.491 135.604L333.86 142.158V147.619L314.745 142.158Z" fill="#FE9C83"/>
<ellipse cx="321.845" cy="111.029" rx="16.9299" ry="18.5682" transform="rotate(-8.82953 321.845 111.029)" fill="#FE9C83"/>
<path d="M336.044 101.198C336.044 101.198 333.314 96.8294 330.583 95.7375C327.852 94.6457 319.114 92.4608 314.745 95.1914C310.376 97.922 304.915 113.213 304.915 113.213C304.915 113.213 298.908 113.213 298.908 107.206C298.908 101.198 302.185 92.4608 302.185 92.4608C302.185 92.4608 307.646 84.2685 314.199 82.6306C316.473 82.0623 318.286 81.9541 319.571 82.0323C320.318 81.9317 322.648 82.0485 327.306 82.6306C336.044 83.7224 336.044 92.4608 336.044 92.4608V101.198Z" fill="#5B4747"/>
<path d="M313.653 300.534L291.808 241.552C306.347 233.361 314.613 234.051 329.491 241.552L332.221 258.482L338.827 291.509L339.321 290.158H351.882L334.952 266.674L331.129 241.552L351.882 231.722L373.727 271.589L382.465 297.257C382.207 308.277 379.615 312.749 367.173 315.279L333.173 312.704C331 315.626 328.057 318.538 324.029 321.833L272.694 341.493L262.864 325.655L313.653 300.534Z" fill="#888080"/>
<rect x="321.836" y="243.368" width="17.476" height="25.7515" transform="rotate(-14.9574 321.836 243.368)" fill="#888080"/>
<circle cx="307.1" cy="107.752" r="5.46124" fill="#FE9C83"/>
<path d="M354.612 139.427C346.967 139.427 333.86 141.612 333.86 141.612L330.037 145.435L315.291 141.612C315.291 141.612 302.185 139.427 296.723 139.427C291.262 139.427 282.524 149.258 282.524 149.258L269.417 163.457L282.524 177.11L289.624 170.556L284.709 244.283C284.709 244.283 296.177 242.645 306.554 238.822C316.93 234.999 324.576 240.46 328.398 241.553C332.221 242.645 354.612 231.722 354.612 231.722L345.328 163.457L372.635 167.28L374.273 145.435C374.273 145.435 362.258 139.427 354.612 139.427Z" fill="#66C3C8"/>
<path d="M141.487 209.54L129.072 199.048L124.44 207.215L139.163 215.351L141.487 209.54Z" fill="#EFD0B3"/>
<path d="M112.043 173.509H96.9333L94.2213 178.933L99.6453 182.033L112.043 179.708V173.509Z" fill="#EFD0B3"/>
<path d="M118.137 170.672C115.425 170.672 111.938 173.771 111.938 173.771V179.97L115.425 189.268L121.624 192.368V178.808C121.624 175.321 120.849 170.672 118.137 170.672Z" fill="#79706B"/>
<path d="M147.215 208.98C143.728 208.98 141.403 209.367 141.403 209.367L139.079 214.791C139.079 214.791 137.142 222.152 137.142 225.639C137.142 229.126 136.754 227.576 137.916 232.225C139.079 236.874 142.566 231.45 142.566 231.45L147.215 220.603L149.927 212.079C149.927 212.079 150.702 208.98 147.215 208.98Z" fill="#79706C"/>
<path d="M94.1375 70.0481V59.5876H84.8393L83.677 65.399L80.5776 70.0481L84.3798 73.8377L94.1375 70.0481Z" fill="#EFD0B3"/>
<path d="M94.8155 179.051L110.313 137.209C99.9985 131.398 94.1349 131.887 83.5802 137.209L81.6431 149.219L76.9572 172.649L76.6066 171.69H67.6958L79.706 155.031L82.4179 137.209L67.6958 130.236L52.1988 158.518L46 176.727C46.1832 184.544 48.0217 187.716 56.8479 189.512L80.968 187.684C82.5098 189.758 84.5975 191.824 87.4544 194.16L123.872 208.108L130.846 196.872L94.8155 179.051Z" fill="#858697"/>
<rect width="12.3976" height="18.2683" transform="matrix(-0.966118 -0.2581 -0.2581 0.966118 89.0103 138.497)" fill="#858697"/>
<path d="M88.991 36.5938L92.1833 27.7262C92.1833 27.7262 100.341 28.4356 105.662 31.9826C110.983 35.5297 116.658 43.6879 116.658 47.2349C116.658 50.7819 115.594 53.9743 116.658 56.1025C117.722 58.2307 128.008 56.4572 133.329 65.3248C138.65 74.1924 128.008 80.9318 128.008 80.9318C128.008 80.9318 121.269 91.2182 114.884 91.2182C108.5 91.2182 107.081 84.1241 105.662 82.7053C104.243 81.2865 95.0209 70.6454 93.6021 67.8077C92.1833 64.9701 92.8927 63.5513 93.6021 60.0042C94.3115 56.4572 93.6021 50.7819 93.6021 50.7819L98.2132 43.6879L88.991 36.5938Z" fill="#7B6E6E"/>
<ellipse rx="12.0102" ry="13.1724" transform="matrix(-0.988149 -0.153495 -0.153495 0.988149 89.1009 47.9648)" fill="#EFD0B3"/>
<circle r="3.87425" transform="matrix(-1 0 0 1 99.5614 45.6404)" fill="#EFD0B3"/>
<path d="M91.4739 42.6237C89.7003 41.2049 88.9909 34.1108 88.9909 34.1108C95.028 34.6681 98.0222 36.7513 99.9868 41.9143C99.9868 41.9143 93.2474 44.0425 91.4739 42.6237Z" fill="#7B6E6E"/>
<path d="M87.2174 42.269C88.9909 40.8502 89.7003 33.7561 89.7003 33.7561C83.6633 34.3134 80.6691 36.3966 78.7045 41.5596C78.7045 41.5596 85.4439 43.6878 87.2174 42.269Z" fill="#7B6E6E"/>
<path d="M77.2857 29.1448C81.8969 26.6619 92.1833 27.7261 92.1833 27.7261L90.0551 34.1107C83.1139 34.1209 80.878 37.2409 77.6404 45.1066C77.3216 53.6633 79.1087 57.1113 85.0892 60.3588C85.0892 60.3588 84.3798 62.8417 84.3798 64.9699C84.3798 67.0981 81.5422 69.2263 81.5422 69.2263C81.5422 69.2263 75.8669 67.4528 73.7387 64.9699C71.6105 62.487 69.837 55.0382 69.837 52.2006C69.837 49.363 71.6105 41.2048 71.6105 41.2048C71.6105 41.2048 72.6746 31.6277 77.2857 29.1448Z" fill="#7B6E6E"/>
<path d="M58.1317 36.239L66.9993 57.1666L58.1317 62.8418L49.6188 36.239L54.9394 14.2474V5.37982C54.9394 5.37982 54.9394 1.12337 60.9694 0.76867C66.9993 0.413966 65.9352 7.50804 65.9352 7.50804L60.9694 14.2474L58.1317 36.239Z" fill="#EFD0B3"/>
<path d="M117.843 35.9004L107.887 56.3327L116.444 62.4664L126.344 36.348L122.187 14.1071L122.653 5.25173C122.653 5.25173 122.877 1.00117 116.874 0.329905C110.871 -0.341359 111.561 6.79885 111.561 6.79885L116.166 13.79L117.843 35.9004Z" fill="#EFD0B3"/>
<path d="M68.9366 55.7714C68.9366 55.7714 79.7882 67.6071 80.4664 68.6831C81.1446 69.759 83.8575 72.6283 83.8575 72.6283C83.8575 72.6283 90.9789 69.0417 93.0135 68.6831C95.0482 68.3244 99.4567 68.6831 99.4567 68.6831L106.239 53.6195C112.261 53.8647 113.363 58.3865 118.786 63.3032L110.308 78.7254L109.291 84.8226L106.239 92.3543L103.865 111.004L112.343 138.98C112.343 138.98 105.561 140.056 88.266 138.98C70.9712 137.904 62.8325 133.958 62.8325 133.958L72.6668 111.004C72.6668 111.004 66.5628 87.3332 66.5628 84.8226V76.5735L57.0676 63.6619L68.9366 55.7714Z" fill="#C69ECD"/>
<path d="M95.0987 364.226C106.073 351.82 113.147 350.199 127.829 358.75C138.053 346.51 144.62 344.843 158.221 353.665" stroke="#FFDA57" stroke-width="4"/>
<path d="M213.424 159.169C203.366 158.058 199.388 155.257 195.811 145.548C186.172 144.735 182.415 142.188 179.455 132.899" stroke="white" stroke-width="4"/>
<path d="M469.705 211.642C469.214 228.197 464.818 233.971 448.064 236.8C448.044 252.748 444.067 258.232 427.97 260.161" stroke="#C69ECD" stroke-width="4"/>
<path d="M6.54555 52.9999C11.0376 60.0043 10.8519 63.6454 4.70711 69.5702C9.22179 76.1891 9.12781 79.5916 2.99999 84.9568" stroke="#66C3C8" stroke-width="4"/>
<ellipse cx="298.5" cy="401.5" rx="83.5" ry="8.5" fill="#AEBEE9"/>
<ellipse cx="113" cy="249.5" rx="48" ry="5.5" fill="#AEBEE9"/>
</svg>
