<svg width="22" height="17" viewBox="0 0 22 17" fill="none" xmlns="http://www.w3.org/2000/svg">
<path d="M18.3333 14.5C19.3417 14.5 20.1575 13.675 20.1575 12.6667L20.1667 2.58333C20.1667 1.575 19.3417 0.75 18.3333 0.75H3.66667C2.65833 0.75 1.83333 1.575 1.83333 2.58333V12.6667C1.83333 13.675 2.65833 14.5 3.66667 14.5H0C0 15.5083 0.825 16.3333 1.83333 16.3333H20.1667C21.175 16.3333 22 15.5083 22 14.5H18.3333ZM3.66667 2.58333H18.3333V12.6667H3.66667V2.58333ZM11 15.4167C10.4958 15.4167 10.0833 15.0042 10.0833 14.5C10.0833 13.9958 10.4958 13.5833 11 13.5833C11.5042 13.5833 11.9167 13.9958 11.9167 14.5C11.9167 15.0042 11.5042 15.4167 11 15.4167Z" fill="#323232"/>
</svg>
