<svg width="13" height="14" viewBox="0 0 13 14" fill="none" xmlns="http://www.w3.org/2000/svg">
<path d="M12.8232 12.1039L10.2916 9.37799C10.1773 9.25496 10.0224 9.1866 9.8599 9.1866H9.446C10.1468 8.22146 10.5633 7.00752 10.5633 5.68694C10.5633 2.54545 8.19923 0 5.28164 0C2.36404 0 0 2.54545 0 5.68694C0 8.82843 2.36404 11.3739 5.28164 11.3739C6.50809 11.3739 7.63552 10.9255 8.53187 10.1709V10.6165C8.53187 10.7915 8.59536 10.9583 8.70962 11.0813L11.2413 13.8072C11.4799 14.0643 11.8659 14.0643 12.1021 13.8072L12.8207 13.0335C13.0594 12.7765 13.0594 12.3609 12.8232 12.1039ZM5.28164 9.1866C3.48639 9.1866 2.0314 7.62269 2.0314 5.68694C2.0314 3.75393 3.48385 2.18729 5.28164 2.18729C7.07688 2.18729 8.53187 3.7512 8.53187 5.68694C8.53187 7.61996 7.07942 9.1866 5.28164 9.1866Z" fill="#A7A9AC"/>
</svg>
