<svg width="16" height="17" viewBox="0 0 16 17" fill="none" xmlns="http://www.w3.org/2000/svg">
<path d="M3.45 2.375C3.5 3.15375 3.625 3.915 3.825 4.64125L2.825 5.69125C2.48333 4.64125 2.26667 3.53 2.19167 2.375H3.45ZM11.6667 12.8925C12.375 13.1025 13.1 13.2337 13.8333 13.2862V14.59C12.7333 14.5112 11.675 14.2837 10.6667 13.9337L11.6667 12.8925ZM4.25 0.625H1.33333C0.875 0.625 0.5 1.01875 0.5 1.5C0.5 9.71625 6.84167 16.375 14.6667 16.375C15.125 16.375 15.5 15.9812 15.5 15.5V12.4462C15.5 11.965 15.125 11.5712 14.6667 11.5712C13.6333 11.5712 12.625 11.3962 11.6917 11.0725C11.6083 11.0375 11.5167 11.0288 11.4333 11.0288C11.2167 11.0288 11.0083 11.1163 10.8417 11.2825L9.00833 13.2075C6.65 11.9387 4.71667 9.9175 3.51667 7.44125L5.35 5.51625C5.58333 5.27125 5.65 4.93 5.55833 4.62375C5.25 3.64375 5.08333 2.59375 5.08333 1.5C5.08333 1.01875 4.70833 0.625 4.25 0.625Z" fill="#323232"/>
</svg>
