<svg width="26" height="26" viewBox="0 0 26 26" fill="none" xmlns="http://www.w3.org/2000/svg">
    <circle cx="12.6" cy="12.972" r="12.6" fill="#219EA4" />
    <circle cx="12.6" cy="12.972" r="12.6" />
    <path
        d="M9.64194 12.4457C10.4819 14.0965 11.8353 15.444 13.4861 16.2899L14.7694 15.0065C14.9269 14.849 15.1603 14.7965 15.3644 14.8665C16.0178 15.0824 16.7236 15.199 17.4469 15.199C17.7678 15.199 18.0303 15.4615 18.0303 15.7824V17.8182C18.0303 18.139 17.7678 18.4015 17.4469 18.4015C11.9694 18.4015 7.53027 13.9624 7.53027 8.48489C7.53027 8.16406 7.79277 7.90156 8.11361 7.90156H10.1553C10.4761 7.90156 10.7386 8.16406 10.7386 8.48489C10.7386 9.21406 10.8553 9.91406 11.0711 10.5674C11.1353 10.7716 11.0886 10.9991 10.9253 11.1624L9.64194 12.4457Z"
        fill="white" />
</svg>