<svg width="35" height="35" viewBox="0 0 35 35" fill="none" xmlns="http://www.w3.org/2000/svg">
<path d="M8.78249 15.5394C11.1158 20.125 14.8751 23.8681 19.4607 26.2176L23.0255 22.6528C23.463 22.2153 24.1112 22.0694 24.6783 22.2639C26.4931 22.8634 28.4538 23.1875 30.463 23.1875C31.3542 23.1875 32.0834 23.9167 32.0834 24.8079V30.463C32.0834 31.3542 31.3542 32.0833 30.463 32.0833C15.2478 32.0833 2.91675 19.7523 2.91675 4.53704C2.91675 3.64583 3.64591 2.91667 4.53712 2.91667H10.2084C11.0996 2.91667 11.8288 3.64583 11.8288 4.53704C11.8288 6.5625 12.1529 8.50695 12.7524 10.3218C12.9306 10.8889 12.801 11.5208 12.3473 11.9745L8.78249 15.5394Z" fill="white"/>
</svg>
