<svg width="42" height="42" viewBox="0 0 42 42" fill="none" xmlns="http://www.w3.org/2000/svg">
<path opacity="0.3" d="M31.5 5.25C30.5717 5.25 29.6815 5.61875 29.0251 6.27513C28.3687 6.9315 28 7.82174 28 8.75C28 9.67826 28.3687 10.5685 29.0251 11.2249C29.6815 11.8813 30.5717 12.25 31.5 12.25C32.4283 12.25 33.3185 11.8813 33.9749 11.2249C34.6313 10.5685 35 9.67826 35 8.75C35 7.82174 34.6313 6.9315 33.9749 6.27513C33.3185 5.61875 32.4283 5.25 31.5 5.25ZM31.5 29.75C30.5717 29.75 29.6815 30.1187 29.0251 30.7751C28.3687 31.4315 28 32.3217 28 33.25C28 34.1783 28.3687 35.0685 29.0251 35.7249C29.6815 36.3813 30.5717 36.75 31.5 36.75C32.4283 36.75 33.3185 36.3813 33.9749 35.7249C34.6313 35.0685 35 34.1783 35 33.25C35 32.3217 34.6313 31.4315 33.9749 30.7751C33.3185 30.1187 32.4283 29.75 31.5 29.75ZM10.5 17.5C9.57174 17.5 8.6815 17.8687 8.02513 18.5251C7.36875 19.1815 7 20.0717 7 21C7 21.9283 7.36875 22.8185 8.02513 23.4749C8.6815 24.1313 9.57174 24.5 10.5 24.5C11.4283 24.5 12.3185 24.1313 12.9749 23.4749C13.6313 22.8185 14 21.9283 14 21C14 20.0717 13.6313 19.1815 12.9749 18.5251C12.3185 17.8687 11.4283 17.5 10.5 17.5Z" fill="white"/>
<path d="M31.5 14C28.525 14 26.25 11.725 26.25 8.75C26.25 5.775 28.525 3.5 31.5 3.5C34.475 3.5 36.75 5.775 36.75 8.75C36.75 11.725 34.475 14 31.5 14ZM31.5 7C30.45 7 29.75 7.7 29.75 8.75C29.75 9.8 30.45 10.5 31.5 10.5C32.55 10.5 33.25 9.8 33.25 8.75C33.25 7.7 32.55 7 31.5 7ZM31.5 38.5C28.525 38.5 26.25 36.225 26.25 33.25C26.25 30.275 28.525 28 31.5 28C34.475 28 36.75 30.275 36.75 33.25C36.75 36.225 34.475 38.5 31.5 38.5ZM31.5 31.5C30.45 31.5 29.75 32.2 29.75 33.25C29.75 34.3 30.45 35 31.5 35C32.55 35 33.25 34.3 33.25 33.25C33.25 32.2 32.55 31.5 31.5 31.5ZM10.5 26.25C7.525 26.25 5.25 23.975 5.25 21C5.25 18.025 7.525 15.75 10.5 15.75C13.475 15.75 15.75 18.025 15.75 21C15.75 23.975 13.475 26.25 10.5 26.25ZM10.5 19.25C9.45 19.25 8.75 19.95 8.75 21C8.75 22.05 9.45 22.75 10.5 22.75C11.55 22.75 12.25 22.05 12.25 21C12.25 19.95 11.55 19.25 10.5 19.25Z" fill="white"/>
<path d="M12.709 17.6797L27.676 8.95367L29.4388 11.9773L14.4718 20.7034L12.709 17.6797Z" fill="white"/>
<path d="M12.71 24.301L14.4733 21.2776L29.4389 30.006L27.6756 33.0294L12.71 24.301Z" fill="white"/>
</svg>
